<mxfile host="app.diagrams.net" modified="2022-05-17T16:02:17.032Z" agent="5.0 (Windows NT 10.0; Win64; x64) AppleWebKit/537.36 (KHTML, like Gecko) Chrome/101.0.4951.67 Safari/537.36" etag="FBAvX7ETHV8Qh7XWJMCI" version="18.0.6" type="github">
  <diagram id="FVm69CzN_h85lXlvuJzs" name="Page-1">
    <mxGraphModel dx="1865" dy="539" grid="1" gridSize="10" guides="1" tooltips="1" connect="1" arrows="1" fold="1" page="1" pageScale="1" pageWidth="827" pageHeight="1169" background="#F4F1DE" math="0" shadow="0">
      <root>
        <mxCell id="0" />
        <mxCell id="1" parent="0" />
        <mxCell id="_43DGBzI_nXKlMJYh1tM-2" value="gui.py" style="swimlane;fontStyle=0;childLayout=stackLayout;horizontal=1;startSize=26;fillColor=none;horizontalStack=0;resizeParent=1;resizeParentMax=0;resizeLast=0;collapsible=1;marginBottom=0;strokeColor=#E07A5F;fontColor=#393C56;rounded=1;" vertex="1" parent="1">
          <mxGeometry x="-110" y="70" width="140" height="52" as="geometry" />
        </mxCell>
        <mxCell id="_43DGBzI_nXKlMJYh1tM-3" value="Item 1" style="text;strokeColor=none;fillColor=#F2CC8F;align=center;verticalAlign=top;spacingLeft=4;spacingRight=4;overflow=hidden;rotatable=0;points=[[0,0.5],[1,0.5]];portConstraint=eastwest;rounded=1;glass=0;fontColor=#393C56;" vertex="1" parent="_43DGBzI_nXKlMJYh1tM-2">
          <mxGeometry y="26" width="140" height="26" as="geometry" />
        </mxCell>
      </root>
    </mxGraphModel>
  </diagram>
</mxfile>
